<svg width="51" height="57" viewBox="0 0 51 57" fill="none" xmlns="http://www.w3.org/2000/svg">
<path d="M12.4309 56.3463C13.6241 56.3463 14.5913 54.819 14.5913 52.9351C14.5913 51.0512 13.6241 49.5239 12.4309 49.5239C11.2378 49.5239 10.2705 51.0512 10.2705 52.9351C10.2705 54.819 11.2378 56.3463 12.4309 56.3463Z" fill="#E84A4A"/>
<path fill-rule="evenodd" clip-rule="evenodd" d="M22.8437 3.0726C22.5212 3.22062 21.2371 3.65122 21.7179 2.83038C22.3204 1.93554 23.2758 1.34346 24.1887 0.906133C24.4625 0.785027 25.85 0.293872 25.4179 1.08107C24.8155 2.02301 23.7809 2.62181 22.8498 3.0726M5.13458 46.449C3.92962 46.6777 3.82616 44.6324 3.88702 43.751C4.00873 42.4794 4.43473 40.6897 5.62751 40.1649C6.86289 39.7881 7.00286 41.8873 6.94809 42.7754C6.83246 44.047 6.40647 46.0318 5.13458 46.449ZM13.3258 11.6443C12.7477 12.0143 12.2426 11.873 12.6321 11.106C13.1798 10.1035 13.9952 9.2625 14.8959 8.66369C15.4071 8.34074 16.0948 8.28691 15.6931 9.10102C15.1272 10.1439 14.263 11.0185 13.3319 11.651M22.7829 43.1051C21.0241 43.2733 19.9713 41.5374 20.0139 39.7477C20.16 37.8168 21.3284 35.9194 23.1115 35.5023C24.8824 35.2399 26.0143 36.9286 26.0022 38.752C25.8805 40.7435 24.6512 42.762 22.7829 43.0984M28.7468 4.26348C28.2417 4.42496 26.6046 4.72099 27.0185 3.61758C27.5479 2.49398 28.7955 1.86153 29.8422 1.49821C30.3108 1.35019 31.9904 0.993599 31.6679 2.0701C31.1871 3.25426 29.7996 3.90016 28.7468 4.27021M23.4097 32.0171C21.4075 32.3602 20.0261 30.6715 20.233 28.5117C20.5921 26.1502 22.2473 24.0913 24.3408 23.4723C26.3004 23.035 27.8522 24.5219 27.7183 26.7288C27.4201 29.2249 25.6309 31.4587 23.4036 32.0171M35.1489 28.9154C33.4692 29.0904 31.8626 27.9264 31.9356 25.9281C32.1426 23.903 33.737 22.4026 35.4957 22.0662C37.1449 21.8576 38.7881 22.9341 38.7941 24.9054C38.6603 27.0181 36.9685 28.5992 35.1489 28.9087M26.8359 10.5879C25.8013 10.8907 23.9026 10.8302 24.3956 9.11448C25.0285 7.37861 26.7264 6.26174 28.2721 5.71676C29.2215 5.42745 31.2541 5.30634 30.9011 7.00184C30.3473 8.86553 28.4364 10.043 26.842 10.5879M24.8094 20.3909C22.9898 20.8349 21.1276 19.8459 21.5718 17.5314C22.1987 15.0958 24.2191 13.2725 26.3551 12.5526C28.0591 12.0749 30.1647 12.7342 29.8726 15.0756C29.3553 17.7063 27.0732 19.6979 24.8094 20.3976M47.0462 14.9007C45.6831 15.0083 43.7174 14.3422 43.687 12.5256C43.8209 10.7494 45.6222 9.88821 47.0219 9.74692C48.306 9.67291 50.3264 10.2313 50.3933 11.9941C50.4664 13.8175 48.4094 14.793 47.0402 14.9007M36.9745 7.43917C36.1165 7.58719 34.236 7.55355 34.4612 6.10699C34.8202 4.69408 36.4086 4.00781 37.5892 3.75214C38.429 3.60412 40.2669 3.59067 40.1756 4.99012C39.9139 6.48377 38.1612 7.19023 36.9745 7.43917ZM35.8244 17.5381C34.1082 17.7803 31.7652 17.0402 32.0026 14.6719C32.4225 12.3507 34.589 10.9378 36.5485 10.5207C38.2038 10.2515 40.559 10.8503 40.5164 13.1446C40.2608 15.6273 37.8448 17.1412 35.8244 17.5381ZM6.11436 37.1978C4.65381 37.7226 4.64164 35.3744 4.79986 34.3652C5.1224 32.6563 5.90745 30.6715 7.38017 29.8237C8.86506 29.1307 8.99895 31.351 8.83463 32.441C8.5121 34.197 7.70879 36.4375 6.11436 37.1978ZM1.54406 38.6376C0.661648 39.0615 0.868555 37.1238 0.941583 36.6528C1.15458 35.5225 1.54406 34.1028 2.45691 33.4233C3.36366 32.885 3.18718 34.8026 3.10806 35.3004C2.89507 36.4375 2.51167 38.0119 1.53797 38.6376M10.7333 17.9687C9.71705 18.581 9.40059 17.7332 9.79007 16.7307C10.423 15.2573 11.4636 13.952 12.7233 13.0975C13.6423 12.5256 14.263 12.9899 13.837 14.1202C13.1798 15.6677 12.06 17.0873 10.7333 17.9687ZM7.97048 27.1594C6.46124 27.9264 6.41256 25.9281 6.72292 24.7978C7.31323 22.8735 8.44515 20.9695 10.0518 19.9064C11.5062 19.0654 11.8653 20.6129 11.5245 21.9383C10.922 23.9702 9.71096 26.1098 7.97048 27.1594ZM0.363451 31.4519C-0.251197 31.9767 0.0835144 30.362 0.156542 30.0996C0.448652 29.0904 0.850301 28.0004 1.56232 27.2603C2.20739 26.6682 1.89702 28.1955 1.81182 28.505C1.50754 29.5344 1.11198 30.7118 0.363451 31.4519ZM6.0535 20.9022C5.35365 21.4472 5.46929 20.4918 5.67011 19.9804C6.10828 18.9376 6.7351 17.9418 7.56274 17.2354C8.23825 16.6971 8.26258 17.4439 8.02524 18.036C7.56882 19.1125 6.91766 20.1688 6.0535 20.9022ZM3.26628 29.8506C2.17696 30.5773 2.50558 28.4848 2.6699 27.8927C3.12023 26.3856 3.85051 24.7978 5.01895 23.8088C6.12044 22.9879 5.93179 24.8113 5.73705 25.5312C5.26238 27.0921 4.51992 28.8616 3.26628 29.8439M12.3643 46.1731C10.5934 46.3884 10.0092 44.1278 10.0822 42.5736C10.2404 40.7099 11.1167 38.4896 12.8755 37.9177C14.689 37.5207 15.3706 39.7881 15.3097 41.3827C15.1637 43.2935 14.2508 45.7358 12.3643 46.1731ZM13.1372 35.3273C11.0924 35.8454 10.4291 33.4771 10.6847 31.6672C11.1107 29.3258 12.4677 26.9239 14.549 26.029C16.5755 25.3293 17.4884 27.4285 17.2632 29.3729C16.8676 31.8422 15.401 34.5469 13.1372 35.3341M17.4762 14.6383C16.2591 15.1698 15.042 14.719 15.6323 13.1043C16.4173 11.2473 17.9631 9.78056 19.6244 8.93282C20.6772 8.44839 22.2778 8.48876 21.7361 10.1843C20.9694 12.1825 19.235 13.7771 17.4701 14.645M14.9446 24.0577C13.0946 24.7372 12.1939 23.1494 12.6686 21.2722C13.3745 18.9174 15.0359 16.8249 17.0928 15.8157C18.8029 15.0891 20.1356 16.1454 19.7036 18.1908C19.028 20.7273 17.1719 23.0754 14.9446 24.0577ZM20.1356 7.77558C19.5149 8.06489 18.2369 8.27346 18.7785 7.1364C19.454 5.89169 20.6346 4.99685 21.8092 4.4115C22.3325 4.16929 23.8113 3.78578 23.3184 4.92284C22.649 6.23483 21.3467 7.17004 20.1356 7.7823" fill="#E30613"/>
</svg>